<?xml version="1.0" standalone="no"?>
<!DOCTYPE svg PUBLIC "-//W3C//DTD SVG 20010904//EN"
 "http://www.w3.org/TR/2001/REC-SVG-20010904/DTD/svg10.dtd">
<svg version="1.0" xmlns="http://www.w3.org/2000/svg"
 width="297.000000pt" height="297.000000pt" viewBox="0 0 297.000000 297.000000"
 preserveAspectRatio="xMidYMid meet">
<metadata>
Created by potrace 1.14, written by Peter Selinger 2001-2017
</metadata>
<g transform="translate(0.000000,297.000000) scale(0.100000,-0.100000)"
fill="#000000" stroke="none">
<path d="M110 1485 l0 -115 153 0 c170 0 217 9 247 47 27 35 27 101 0 136 -30
38 -77 47 -247 47 l-153 0 0 -115z m311 35 c11 -6 19 -21 19 -36 0 -34 -32
-44 -146 -44 l-94 0 0 45 0 45 101 0 c55 0 109 -5 120 -10z"/>
<path d="M1864 1558 c14 -24 45 -76 68 -115 l43 -73 65 0 65 0 42 73 c24 39
54 91 68 115 l26 42 -50 0 -50 0 -48 -90 c-26 -49 -50 -90 -53 -90 -3 0 -27
41 -53 90 l-48 90 -51 0 -50 0 26 -42z"/>
<path d="M2730 1576 c0 -21 -6 -25 -32 -28 -28 -2 -33 -7 -33 -28 0 -21 5 -26
33 -28 l32 -3 0 -60 0 -59 40 0 40 0 0 59 0 60 33 3 c27 2 32 7 32 28 0 21 -5
26 -32 28 -27 3 -33 7 -33 28 0 21 -4 24 -40 24 -36 0 -40 -3 -40 -24z"/>
<path d="M663 1539 c-63 -18 -82 -86 -39 -136 24 -28 25 -28 146 -28 121 0
122 0 146 28 45 52 24 118 -44 137 -45 12 -165 12 -209 -1z m168 -49 c21 -12
25 -40 7 -58 -7 -7 -37 -12 -68 -12 -31 0 -61 5 -68 12 -19 19 -14 48 11 58
31 12 94 12 118 0z"/>
<path d="M1000 1461 l0 -91 45 0 45 0 0 50 c0 58 14 70 82 70 56 0 68 -13 68
-72 l0 -48 45 0 45 0 0 54 c0 60 7 66 87 66 50 0 63 -17 63 -79 l0 -41 40 0
40 0 0 59 c0 74 -5 88 -41 106 -42 22 -107 18 -155 -9 l-41 -23 -27 24 c-39
33 -119 32 -169 -1 l-36 -25 -3 22 c-2 18 -11 23 -45 25 l-43 3 0 -90z"/>
<path d="M2300 1528 c-55 -37 -55 -115 0 -143 43 -22 147 -20 187 5 32 19 32
19 38 0 5 -15 15 -20 46 -20 l39 0 0 91 0 90 -42 -3 c-36 -3 -44 -7 -46 -26
l-4 -24 -24 23 c-20 19 -39 24 -92 27 -58 3 -72 0 -102 -20z m183 -39 c45 -12
51 -44 11 -59 -64 -25 -161 -1 -147 36 12 31 70 42 136 23z"/>
<path d="M1640 1465 c0 -24 2 -25 75 -25 73 0 75 1 75 25 0 24 -2 25 -75 25
-73 0 -75 -1 -75 -25z"/>
</g>
</svg>
